<svg width="32" height="32" viewBox="0 0 32 32" fill="none" xmlns="http://www.w3.org/2000/svg">
<g id="Group">
<path id="Vector" fill-rule="evenodd" clip-rule="evenodd" d="M22.2963 4C22.6696 4 23.0275 4.14828 23.2915 4.41222C23.5554 4.67616 23.7037 5.03414 23.7037 5.40741V6.81481H26.5185C27.2651 6.81481 27.981 7.11137 28.5089 7.63925C29.0368 8.16714 29.3333 8.88309 29.3333 9.62963V26.5185C29.3333 27.2651 29.0368 27.981 28.5089 28.5089C27.981 29.0368 27.2651 29.3333 26.5185 29.3333H6.81481C6.06828 29.3333 5.35232 29.0368 4.82444 28.5089C4.29656 27.981 4 27.2651 4 26.5185V9.62963C4 8.88309 4.29656 8.16714 4.82444 7.63925C5.35232 7.11137 6.06828 6.81481 6.81481 6.81481H9.62963V5.40741C9.62963 5.03414 9.77791 4.67616 10.0419 4.41222C10.3058 4.14828 10.6638 4 11.037 4C11.4103 4 11.7683 4.14828 12.0322 4.41222C12.2962 4.67616 12.4444 5.03414 12.4444 5.40741V6.81481H20.8889V5.40741C20.8889 5.03414 21.0372 4.67616 21.3011 4.41222C21.5651 4.14828 21.923 4 22.2963 4ZM11.037 9.62963H6.81481V12.4444H26.5185V9.62963H22.2963H11.037ZM6.81481 15.2593V26.5185H26.5185V15.2593H6.81481ZM9.62963 18.0741C9.62963 17.7008 9.77791 17.3428 10.0419 17.0789C10.3058 16.8149 10.6638 16.6667 11.037 16.6667H11.0511C11.4244 16.6667 11.7824 16.8149 12.0463 17.0789C12.3102 17.3428 12.4585 17.7008 12.4585 18.0741C12.4585 18.4473 12.3102 18.8053 12.0463 19.0693C11.7824 19.3332 11.4244 19.4815 11.0511 19.4815H11.037C10.6638 19.4815 10.3058 19.3332 10.0419 19.0693C9.77791 18.8053 9.62963 18.4473 9.62963 18.0741ZM11.037 20.8889C10.6638 20.8889 10.3058 21.0372 10.0419 21.3011C9.77791 21.5651 9.62963 21.923 9.62963 22.2963C9.62963 22.6696 9.77791 23.0275 10.0419 23.2915C10.3058 23.5554 10.6638 23.7037 11.037 23.7037H11.0511C11.4244 23.7037 11.7824 23.5554 12.0463 23.2915C12.3102 23.0275 12.4585 22.6696 12.4585 22.2963C12.4585 21.923 12.3102 21.5651 12.0463 21.3011C11.7824 21.0372 11.4244 20.8889 11.0511 20.8889H11.037ZM15.2593 18.0741C15.2593 17.7008 15.4075 17.3428 15.6715 17.0789C15.9354 16.8149 16.2934 16.6667 16.6667 16.6667H16.6807C17.054 16.6667 17.412 16.8149 17.6759 17.0789C17.9399 17.3428 18.0881 17.7008 18.0881 18.0741C18.0881 18.4473 17.9399 18.8053 17.6759 19.0693C17.412 19.3332 17.054 19.4815 16.6807 19.4815H16.6667C16.2934 19.4815 15.9354 19.3332 15.6715 19.0693C15.4075 18.8053 15.2593 18.4473 15.2593 18.0741ZM16.6667 20.8889C16.2934 20.8889 15.9354 21.0372 15.6715 21.3011C15.4075 21.5651 15.2593 21.923 15.2593 22.2963C15.2593 22.6696 15.4075 23.0275 15.6715 23.2915C15.9354 23.5554 16.2934 23.7037 16.6667 23.7037H16.6807C17.054 23.7037 17.412 23.5554 17.6759 23.2915C17.9399 23.0275 18.0881 22.6696 18.0881 22.2963C18.0881 21.923 17.9399 21.5651 17.6759 21.3011C17.412 21.0372 17.054 20.8889 16.6807 20.8889H16.6667ZM20.8889 18.0741C20.8889 17.7008 21.0372 17.3428 21.3011 17.0789C21.5651 16.8149 21.923 16.6667 22.2963 16.6667H22.3104C22.6836 16.6667 23.0416 16.8149 23.3056 17.0789C23.5695 17.3428 23.7178 17.7008 23.7178 18.0741C23.7178 18.4473 23.5695 18.8053 23.3056 19.0693C23.0416 19.3332 22.6836 19.4815 22.3104 19.4815H22.2963C21.923 19.4815 21.5651 19.3332 21.3011 19.0693C21.0372 18.8053 20.8889 18.4473 20.8889 18.0741ZM22.2963 20.8889C21.923 20.8889 21.5651 21.0372 21.3011 21.3011C21.0372 21.5651 20.8889 21.923 20.8889 22.2963C20.8889 22.6696 21.0372 23.0275 21.3011 23.2915C21.5651 23.5554 21.923 23.7037 22.2963 23.7037H22.3104C22.6836 23.7037 23.0416 23.5554 23.3056 23.2915C23.5695 23.0275 23.7178 22.6696 23.7178 22.2963C23.7178 21.923 23.5695 21.5651 23.3056 21.3011C23.0416 21.0372 22.6836 20.8889 22.3104 20.8889H22.2963Z" fill="#A3A3A4"/>
</g>
</svg>
