<svg width="24" height="24" viewBox="0 0 24 24" fill="none" xmlns="http://www.w3.org/2000/svg">
<g id="Property 1=checkbox, Property 2=selected">
<path id="Vector" d="M6.70724 2.84961C5.68426 2.84961 4.70318 3.25599 3.97983 3.97934C3.25647 4.7027 2.8501 5.68377 2.8501 6.70675V16.9925C2.8501 18.0154 3.25647 18.9965 3.97983 19.7199C4.70318 20.4432 5.68426 20.8496 6.70724 20.8496H16.993C18.0159 20.8496 18.997 20.4432 19.7204 19.7199C20.4437 18.9965 20.8501 18.0154 20.8501 16.9925V6.70675C20.8501 5.68377 20.4437 4.7027 19.7204 3.97934C18.997 3.25599 18.0159 2.84961 16.993 2.84961H6.70724ZM16.8052 9.09047L10.3767 15.519C10.317 15.5789 10.246 15.6264 10.1679 15.6588C10.0898 15.6912 10.0061 15.7079 9.92153 15.7079C9.83697 15.7079 9.75324 15.6912 9.67514 15.6588C9.59704 15.6264 9.5261 15.5789 9.46638 15.519L6.89495 12.9476C6.77424 12.8269 6.70643 12.6632 6.70643 12.4925C6.70643 12.3218 6.77424 12.158 6.89495 12.0373C7.01567 11.9166 7.17939 11.8488 7.3501 11.8488C7.52081 11.8488 7.68453 11.9166 7.80524 12.0373L9.92153 14.1549L15.895 8.18018C15.9547 8.12041 16.0257 8.073 16.1038 8.04065C16.1819 8.0083 16.2656 7.99165 16.3501 7.99165C16.4346 7.99165 16.5183 8.0083 16.5964 8.04065C16.6745 8.073 16.7455 8.12041 16.8052 8.18018C16.865 8.23995 16.9124 8.31091 16.9448 8.389C16.9771 8.4671 16.9938 8.5508 16.9938 8.63532C16.9938 8.71985 16.9771 8.80355 16.9448 8.88165C16.9124 8.95974 16.865 9.0307 16.8052 9.09047Z" fill="#454545"/>
</g>
</svg>
