<svg width="32" height="32" viewBox="0 0 32 32" fill="none" xmlns="http://www.w3.org/2000/svg">
<g id="Group">
<path id="Vector" fill-rule="evenodd" clip-rule="evenodd" d="M27.9998 12C27.9998 12.3536 27.8593 12.6928 27.6093 12.9428C27.3592 13.1929 27.0201 13.3333 26.6665 13.3333C26.3128 13.3333 25.9737 13.1929 25.7237 12.9428C25.4736 12.6928 25.3331 12.3536 25.3331 12V8.552L20.6171 13.268C22.1556 15.2847 22.8702 17.8107 22.6163 20.3344C22.3623 22.8582 21.1588 25.1912 19.2494 26.8609C17.34 28.5307 14.8674 29.4125 12.3323 29.3277C9.79719 29.2429 7.38903 28.1979 5.59544 26.4044C3.80185 24.6108 2.75687 22.2026 2.6721 19.6675C2.58732 17.1324 3.46909 14.6598 5.13885 12.7504C6.80861 10.841 9.14158 9.63747 11.6654 9.38353C14.1891 9.12958 16.7151 9.84419 18.7318 11.3827L23.4478 6.66667H19.9998C19.6462 6.66667 19.307 6.52619 19.057 6.27614C18.8069 6.02609 18.6665 5.68696 18.6665 5.33333C18.6665 4.97971 18.8069 4.64057 19.057 4.39052C19.307 4.14048 19.6462 4 19.9998 4H26.3331C27.2531 4 27.9998 4.74667 27.9998 5.66667V12ZM12.6665 12C10.7215 12 8.85628 12.7726 7.48101 14.1479C6.10574 15.5232 5.33313 17.3884 5.33313 19.3333C5.33313 21.2783 6.10574 23.1435 7.48101 24.5188C8.85628 25.8941 10.7215 26.6667 12.6665 26.6667C14.6114 26.6667 16.4766 25.8941 17.8519 24.5188C19.2272 23.1435 19.9998 21.2783 19.9998 19.3333C19.9998 17.3884 19.2272 15.5232 17.8519 14.1479C16.4766 12.7726 14.6114 12 12.6665 12Z" fill="#A3A3A4"/>
</g>
</svg>
