<?xml version="1.0" standalone="no"?>
<!DOCTYPE svg PUBLIC "-//W3C//DTD SVG 20010904//EN"
 "http://www.w3.org/TR/2001/REC-SVG-20010904/DTD/svg10.dtd">
<svg version="1.0" xmlns="http://www.w3.org/2000/svg"
 width="700.000000pt" height="700.000000pt" viewBox="0 0 700.000000 700.000000"
 preserveAspectRatio="xMidYMid meet">
<metadata>
Created by potrace 1.14, written by Peter Selinger 2001-2017
</metadata>
<g transform="translate(0.000000,700.000000) scale(0.100000,-0.100000)"
fill="#000000" stroke="none">
<path d="M2255 6986 c-148 -34 -259 -99 -391 -230 -189 -188 -312 -437 -399
-808 -2 -9 -7 -38 -11 -65 -3 -26 -8 -57 -11 -68 -16 -84 -22 -378 -10 -521 6
-69 25 -196 41 -269 48 -221 142 -448 255 -612 184 -268 414 -407 666 -402
132 3 260 44 374 121 71 49 212 195 269 280 120 178 228 440 258 628 3 14 7
36 9 50 5 25 11 56 20 115 22 149 23 467 0 596 -2 13 -9 51 -14 84 -36 213
-85 364 -177 549 -67 132 -137 229 -239 331 -153 151 -300 222 -483 230 -62 3
-119 0 -157 -9z"/>
<path d="M4462 6980 c-331 -86 -605 -425 -732 -905 -30 -114 -36 -139 -46
-215 -3 -25 -8 -54 -10 -65 -21 -105 -21 -483 0 -592 3 -11 7 -38 11 -59 3
-22 8 -52 11 -69 12 -73 58 -236 95 -333 118 -315 323 -565 549 -670 92 -43
163 -59 266 -61 297 -6 577 201 761 564 94 187 143 345 188 610 24 147 25 496
0 640 -24 140 -24 142 -46 225 -85 319 -196 528 -378 711 -160 160 -304 228
-496 234 -75 3 -118 -1 -173 -15z"/>
<path d="M568 4805 c-3 -3 -18 -8 -34 -11 -16 -3 -54 -16 -84 -30 -226 -103
-357 -355 -364 -699 -5 -257 50 -493 174 -753 199 -416 519 -712 851 -788 65
-15 196 -12 269 7 390 101 553 636 371 1224 -132 426 -423 804 -740 964 -119
60 -206 84 -327 88 -61 1 -113 1 -116 -2z"/>
<path d="M6169 4788 c-271 -68 -556 -311 -744 -633 -167 -286 -256 -610 -249
-908 10 -451 254 -747 602 -733 94 4 119 8 190 32 366 122 715 526 868 1004
85 265 103 544 48 765 -76 312 -291 501 -563 494 -43 -1 -111 -10 -152 -21z"/>
<path d="M3372 3374 c-221 -32 -430 -111 -592 -225 -75 -53 -231 -203 -330
-318 -30 -35 -60 -69 -65 -75 -40 -43 -237 -297 -275 -353 -8 -12 -47 -66 -86
-120 -145 -200 -444 -665 -582 -905 -118 -205 -192 -373 -208 -474 -3 -22 -8
-42 -10 -46 -3 -4 -5 -52 -5 -106 0 -219 73 -403 210 -530 99 -92 263 -172
406 -196 17 -3 50 -9 75 -14 74 -14 376 -11 463 4 90 16 193 49 293 94 108 48
135 62 194 101 68 45 103 63 172 88 62 23 164 53 193 57 11 1 54 8 95 15 81
13 470 17 560 6 130 -16 185 -28 280 -59 75 -24 210 -90 233 -113 32 -31 397
-188 397 -170 0 3 12 0 26 -5 43 -17 93 -22 264 -25 182 -4 274 5 395 37 277
74 455 241 526 493 30 105 32 296 5 398 -38 144 -162 399 -291 597 -12 19 -63
98 -111 175 -102 161 -292 442 -402 595 -80 111 -302 402 -313 410 -3 3 -28
32 -55 65 -118 147 -308 339 -389 393 -140 94 -343 172 -515 198 -19 3 -57 9
-85 14 -75 13 -367 9 -473 -6z"/>
</g>
</svg>
