<svg width="32" height="32" viewBox="0 0 32 32" fill="none" xmlns="http://www.w3.org/2000/svg">
<g id="icon/ empty heart">
<path id="Vector" d="M29.3333 11.4253C29.3377 13.3744 28.5868 15.2494 27.2382 16.6567C24.1463 19.8627 21.1468 23.2054 17.9408 26.2936C17.2048 26.9903 16.0382 26.9649 15.3352 26.2366L6.09477 16.6579C3.30174 13.7623 3.30174 9.08826 6.09477 6.19389C6.75489 5.50101 7.54885 4.94941 8.4285 4.57251C9.30815 4.19561 10.2552 4.00127 11.2122 4.00127C12.1692 4.00127 13.1162 4.19561 13.9958 4.57251C14.8755 4.94941 15.6694 5.50101 16.3296 6.19389L16.6665 6.54096L17.0022 6.19389C17.6636 5.50266 18.4578 4.95206 19.3371 4.57508C20.2165 4.1981 21.1628 4.0025 22.1196 4C24.0449 4 25.8854 4.79041 27.237 6.19389C28.586 7.60098 29.3373 9.47601 29.3333 11.4253Z" stroke="#FF4732" stroke-width="1.5" stroke-linejoin="round"/>
</g>
</svg>
