<svg width="32" height="32" viewBox="0 0 32 32" fill="none" xmlns="http://www.w3.org/2000/svg">
<g id="Group">
<path id="Vector" fill-rule="evenodd" clip-rule="evenodd" d="M16 2.66699C19.1826 2.66699 22.2348 3.93127 24.4853 6.18171C26.7357 8.43215 28 11.4844 28 14.667C28 18.7657 25.7653 22.1203 23.4107 24.527C22.234 25.7162 20.9504 26.7945 19.576 27.7483L19.008 28.135L18.7413 28.3123L18.2387 28.6323L17.7907 28.9057L17.236 29.2283C16.8593 29.4427 16.4334 29.5554 16 29.5554C15.5666 29.5554 15.1407 29.4427 14.764 29.2283L14.2093 28.9057L13.516 28.479L13.26 28.3123L12.7133 27.9483C11.2306 26.9448 9.84942 25.7989 8.58933 24.527C6.23467 22.119 4 18.7657 4 14.667C4 11.4844 5.26428 8.43215 7.51472 6.18171C9.76515 3.93127 12.8174 2.66699 16 2.66699ZM16 5.33366C13.5246 5.33366 11.1507 6.31699 9.40034 8.06733C7.65 9.81767 6.66667 12.1916 6.66667 14.667C6.66667 17.763 8.36267 20.4803 10.4947 22.6617C11.4115 23.5895 12.4023 24.4412 13.4573 25.2083L14.068 25.643C14.2653 25.7803 14.4547 25.9083 14.6373 26.027L15.1573 26.3603L15.6147 26.639L16 26.8643L16.6067 26.5057L17.096 26.199C17.356 26.0337 17.636 25.8483 17.932 25.643L18.5427 25.2083C19.5977 24.4412 20.5885 23.5895 21.5053 22.6617C23.6373 20.4817 25.3333 17.763 25.3333 14.667C25.3333 12.1916 24.35 9.81767 22.5997 8.06733C20.8493 6.31699 18.4754 5.33366 16 5.33366ZM16 9.33366C17.4145 9.33366 18.771 9.89556 19.7712 10.8958C20.7714 11.896 21.3333 13.2525 21.3333 14.667C21.3333 16.0815 20.7714 17.438 19.7712 18.4382C18.771 19.4384 17.4145 20.0003 16 20.0003C14.5855 20.0003 13.229 19.4384 12.2288 18.4382C11.2286 17.438 10.6667 16.0815 10.6667 14.667C10.6667 13.2525 11.2286 11.896 12.2288 10.8958C13.229 9.89556 14.5855 9.33366 16 9.33366ZM16 12.0003C15.2928 12.0003 14.6145 12.2813 14.1144 12.7814C13.6143 13.2815 13.3333 13.9597 13.3333 14.667C13.3333 15.3742 13.6143 16.0525 14.1144 16.5526C14.6145 17.0527 15.2928 17.3337 16 17.3337C16.7072 17.3337 17.3855 17.0527 17.8856 16.5526C18.3857 16.0525 18.6667 15.3742 18.6667 14.667C18.6667 13.9597 18.3857 13.2815 17.8856 12.7814C17.3855 12.2813 16.7072 12.0003 16 12.0003Z" fill="#A3A3A4"/>
</g>
</svg>
