<svg width="32" height="32" viewBox="0 0 32 32" fill="none" xmlns="http://www.w3.org/2000/svg">
<g id="icon/ paw">
<path id="Vector" d="M15.043 8.04582C15.0304 7.85852 15.0103 7.66885 14.9825 7.47738C14.8132 6.3065 14.3609 5.21598 13.713 4.40738C12.9869 3.50014 12.0628 3.00024 11.1148 3.00024L15.043 8.04582ZM15.043 8.04582C15.0245 8.36744 15.0246 8.68549 15.0429 8.99772L15.043 8.04582ZM27.9089 10.6953L27.9004 10.692C27.7148 10.6195 27.5169 10.5824 27.3173 10.5827L27.3158 10.5827L27.2874 10.5827C26.2996 10.6023 24.952 11.5211 24.2016 13.3214L24.2011 13.3226C23.6629 14.6099 23.654 15.8834 24.0053 16.7171L24.0054 16.7172C24.2284 17.2467 24.5624 17.5589 24.9437 17.7133L24.9492 17.7154L24.9492 17.7154C25.1351 17.7879 25.3331 17.825 25.533 17.8248L25.5342 17.8248C26.5257 17.8248 27.8895 16.9171 28.6584 15.0845C29.1886 13.8 29.1955 12.5274 28.8432 11.6913L27.9089 10.6953ZM27.9089 10.6953L27.9111 10.6961M27.9089 10.6953L27.9111 10.6961M27.9111 10.6961C28.2874 10.8506 28.6195 11.1623 28.8429 11.6907L27.9111 10.6961ZM19.3436 11.7206L19.3463 11.721C19.4135 11.731 19.4814 11.736 19.5493 11.736L19.3436 11.7206ZM19.3436 11.7206C18.8476 11.6479 18.3461 11.3018 17.978 10.5832C17.6079 9.86092 17.4223 8.83182 17.5928 7.65839L17.5931 7.65667C17.7343 6.6754 18.1097 5.80108 18.6002 5.18897L18.6006 5.18845C19.1476 4.50496 19.739 4.24994 20.2236 4.24902C20.2913 4.24907 20.3589 4.25409 20.4259 4.26404L20.4278 4.26433M19.3436 11.7206L20.4278 4.26433M20.4278 4.26433C20.9243 4.33736 21.4259 4.68393 21.7942 5.40276C22.1643 6.12529 22.3499 7.15442 22.1794 8.32783C22.0355 9.31 21.6616 10.1834 21.1721 10.7955M20.4278 4.26433L21.1721 10.7955M6.40606 17.7085L6.40571 17.7087L6.3879 17.7156C6.20274 17.7879 6.00547 17.825 5.80636 17.8248H5.80537C4.81559 17.8248 3.45166 16.916 2.68734 15.0851L6.40606 17.7085ZM6.40606 17.7085C6.78155 17.5525 7.11021 17.2418 7.33028 16.7189C7.68228 15.8817 7.67323 14.6094 7.13634 13.3226L6.40606 17.7085ZM4.01823 10.5827H4.01643C3.81698 10.5824 3.61935 10.6195 3.43387 10.6919L3.41618 10.6988L3.41454 10.6994C3.04449 10.8521 2.71477 11.1626 2.49343 11.6884L4.01823 10.5827ZM4.01823 10.5827C5.00802 10.5827 6.37194 11.4915 7.13627 13.3224L4.01823 10.5827ZM21.1721 10.7955C20.6225 11.4824 20.0328 11.736 19.5494 11.736L21.1721 10.7955ZM11.1149 4.25024C11.5984 4.25026 12.1896 4.50442 12.7371 5.18845L12.7375 5.18897C13.228 5.80118 13.6036 6.67574 13.7453 7.65626L13.7455 7.6571C13.916 8.83126 13.7304 9.8607 13.3603 10.5832C12.9921 11.3019 12.4907 11.6479 11.9947 11.7206L11.992 11.721C11.9248 11.731 11.8569 11.736 11.789 11.736L11.1149 4.25024ZM10.9118 4.26526C10.979 4.25527 11.0469 4.25025 11.1148 4.25024L11.7889 11.736C11.306 11.736 10.7157 11.4823 10.1662 10.7955L10.166 10.7952C9.67484 10.1817 9.29961 9.30811 9.15852 8.33032L9.15834 8.32912C8.98776 7.15496 9.1734 6.12552 9.5435 5.40306C9.91169 4.68435 10.4131 4.33832 10.9091 4.26566L10.9118 4.26526ZM19.8122 18.699L19.8132 18.7006C20.5688 19.9453 21.7112 20.6282 22.6195 21.1712C22.6465 21.1874 22.6734 21.2035 22.7 21.2194C23.8634 21.9163 24.5887 22.3986 24.9067 23.2675L24.913 23.2846L24.9198 23.3016C25.0539 23.6371 25.1221 23.995 25.1209 24.3558V24.36C25.1209 25.9082 23.9236 27.0799 22.5631 27.0799C21.712 27.0799 20.7648 26.7836 19.492 26.3723C19.4608 26.3622 19.4294 26.3519 19.3977 26.3416C18.3007 25.984 16.9276 25.5364 15.675 25.5364C14.4241 25.5364 13.0498 25.9828 11.9499 26.3401C11.9163 26.351 11.883 26.3618 11.85 26.3725C10.5766 26.7857 9.62266 27.0824 8.77456 27.0824C7.4091 27.0824 6.2107 25.9087 6.2107 24.3624H6.21073L6.21066 24.3533C6.20805 23.9929 6.27481 23.6352 6.40743 23.2996L6.4132 23.285L6.41859 23.2703C6.73655 22.4025 7.46114 21.9208 8.62517 21.2238L8.62559 21.2236C8.6536 21.2068 8.68187 21.1899 8.71036 21.1728C9.62009 20.6285 10.7624 19.9449 11.5181 18.7009L11.5187 18.7C12.368 17.2994 12.9367 16.3795 13.5691 15.7718C14.1145 15.2476 14.6999 14.9666 15.6688 14.9666C16.6378 14.9666 17.2222 15.2475 17.7663 15.7712C18.3975 16.3786 18.9648 17.2982 19.8122 18.699ZM2.68726 15.0849C2.15038 13.7981 2.14132 12.5258 2.49333 11.6886L2.68726 15.0849Z" stroke="#A3A3A4" stroke-width="2.5"/>
</g>
</svg>
