<svg width="170" height="26" viewBox="0 0 170 26" fill="none" xmlns="http://www.w3.org/2000/svg">
<g id="LOGO">
<path id="Vector" d="M162.209 25.9998C160.725 25.9998 159.372 25.7101 158.152 25.1308C156.931 24.5272 155.961 23.7185 155.243 22.7046C154.525 21.6665 154.166 20.5077 154.166 19.2283V14.4121C154.166 13.0602 154.537 11.8411 155.279 10.7547C156.021 9.66837 157.003 8.81136 158.223 8.18369C159.468 7.55602 160.808 7.24219 162.245 7.24219C163.657 7.24219 164.949 7.54395 166.122 8.14748C167.319 8.72686 168.265 9.54766 168.959 10.6099C169.653 11.6479 170 12.8429 170 14.1948V16.2227C170 16.7538 169.796 17.2004 169.39 17.5625C169.007 17.9246 168.516 18.1057 167.917 18.1057H158.511V18.9024C158.511 19.9404 158.822 20.7854 159.444 21.4372C160.066 22.089 161 22.4149 162.245 22.4149C163.441 22.4149 164.327 22.1493 164.902 21.6182C165.5 21.0871 165.799 20.3991 165.799 19.5542C166.23 19.5059 166.529 19.4817 166.697 19.4817C167.582 19.4817 168.277 19.6869 168.779 20.0973C169.282 20.4836 169.533 21.0388 169.533 21.7631C169.533 22.4632 169.21 23.1391 168.564 23.7909C167.917 24.4427 167.032 24.9738 165.907 25.3842C164.782 25.7946 163.549 25.9998 162.209 25.9998ZM165.943 14.8829V14.1948C165.943 13.1809 165.596 12.3601 164.902 11.7324C164.207 11.1048 163.31 10.7909 162.209 10.7909C161.108 10.7909 160.21 11.1048 159.516 11.7324C158.846 12.336 158.511 13.1568 158.511 14.1948V14.8829H165.943Z" fill="#FF8A1B"/>
<path id="Vector_2" d="M126.331 10.7185C126.331 9.60802 126.678 8.75101 127.373 8.14748C128.067 7.54395 129.12 7.24219 130.532 7.24219V9.41489C130.101 9.94599 129.814 10.3323 129.67 10.5737L129.922 10.7185C130.664 9.58388 131.454 8.72686 132.291 8.14748C133.129 7.54395 134.123 7.24219 135.271 7.24219C137.354 7.24219 138.79 8.26819 139.58 10.3202C140.178 9.35454 140.944 8.60616 141.878 8.07506C142.811 7.51981 143.865 7.24219 145.037 7.24219C146.665 7.24219 147.958 7.84572 148.915 9.05277C149.897 10.2357 150.387 11.7566 150.387 13.6154V23.2478C150.387 24.2134 150.016 24.9135 149.274 25.348C148.556 25.7826 147.455 25.9998 145.971 25.9998V13.9776C145.971 13.0843 145.768 12.3722 145.361 11.8411C144.978 11.31 144.379 11.0444 143.565 11.0444C142.704 11.0444 141.974 11.3462 141.375 11.9497C140.801 12.5291 140.514 13.4465 140.514 14.7018V23.2478C140.514 24.2134 140.154 24.9135 139.436 25.348C138.742 25.7826 137.653 25.9998 136.169 25.9998V13.9776C136.169 13.0602 135.978 12.348 135.595 11.8411C135.212 11.31 134.613 11.0444 133.799 11.0444C132.794 11.0444 132.028 11.3945 131.502 12.0946C130.999 12.7705 130.748 13.6999 130.748 14.8829V23.2478C130.748 24.2134 130.377 24.9135 129.635 25.348C128.916 25.7826 127.815 25.9998 126.331 25.9998V10.7185Z" fill="#FF8A1B"/>
<path id="Vector_3" d="M115.217 25.9998C113.661 25.9998 112.249 25.7222 110.98 25.167C109.736 24.5876 108.754 23.7909 108.036 22.777C107.318 21.7631 106.959 20.6164 106.959 19.3369V14.231C106.959 12.9274 107.306 11.7445 108 10.6823C108.718 9.62009 109.7 8.78722 110.944 8.18369C112.189 7.55602 113.613 7.24219 115.217 7.24219C116.821 7.24219 118.245 7.55602 119.49 8.18369C120.758 8.78722 121.74 9.62009 122.434 10.6823C123.152 11.7445 123.511 12.9274 123.511 14.231V19.3369C123.511 20.6164 123.14 21.7631 122.398 22.777C121.68 23.7909 120.686 24.5876 119.418 25.167C118.173 25.7222 116.773 25.9998 115.217 25.9998ZM115.217 22.1252C116.414 22.1252 117.347 21.8476 118.018 21.2923C118.712 20.7371 119.059 19.9887 119.059 19.0472V14.4483C119.059 13.4585 118.712 12.6619 118.018 12.0583C117.347 11.4307 116.414 11.1168 115.217 11.1168C114.044 11.1168 113.111 11.4307 112.416 12.0583C111.722 12.6619 111.375 13.4585 111.375 14.4483V19.0472C111.375 19.9887 111.722 20.7371 112.416 21.2923C113.111 21.8476 114.044 22.1252 115.217 22.1252Z" fill="#FF8A1B"/>
<path id="Vector_4" d="M84.0456 3.58496C84.0456 2.42618 84.4525 1.54503 85.2663 0.941505C86.0802 0.313835 87.277 0 88.8568 0V10.7911H99.5922V3.58496C99.5922 2.40204 99.9991 1.50882 100.813 0.905294C101.651 0.301765 102.847 0 104.403 0V22.415C104.403 23.5738 103.984 24.467 103.147 25.0947C102.333 25.6982 101.148 26 99.5922 26V14.9916H88.8568V22.415C88.8568 23.5738 88.4379 24.467 87.6001 25.0947C86.7863 25.6982 85.6014 26 84.0456 26V3.58496Z" fill="#FF8A1B"/>
<path id="Vector_5" d="M63.5995 25.9998C61.3016 25.9998 59.4465 25.5894 58.0343 24.7686C56.646 23.9237 55.9399 22.8011 55.916 21.401C55.916 20.7974 56.1553 20.2905 56.634 19.8801C57.1367 19.4697 57.9266 19.2524 59.0037 19.2283C59.2192 20.2905 59.7218 21.1113 60.5117 21.6907C61.3016 22.2459 62.2591 22.5235 63.3841 22.5235C64.6048 22.5235 65.5623 22.3666 66.2564 22.0528C66.9506 21.7389 67.2976 21.2682 67.2976 20.6405C67.2976 20.0611 67.0104 19.5783 66.4359 19.192C65.8854 18.8058 64.7843 18.4195 63.1327 18.0333C61.3375 17.5987 59.9372 17.1642 58.9319 16.7296C57.9505 16.2951 57.2205 15.7399 56.7418 15.0639C56.263 14.388 56.0237 13.4947 56.0237 12.3842C56.0237 10.8392 56.6699 9.59594 57.9625 8.65444C59.2551 7.71294 61.0263 7.24219 63.2763 7.24219C65.4545 7.24219 67.2617 7.64052 68.6979 8.43717C70.1341 9.20969 70.8522 10.2478 70.8522 11.5514C70.8522 12.2032 70.6128 12.686 70.1341 12.9998C69.6553 13.3137 68.8655 13.4827 67.7644 13.5068C67.525 12.5412 67.0702 11.8169 66.4 11.3341C65.7298 10.8513 64.7843 10.6099 63.5636 10.6099C62.654 10.6099 61.8641 10.7668 61.1939 11.0806C60.5476 11.3945 60.2245 11.8049 60.2245 12.3118C60.2245 12.8429 60.4997 13.2533 61.0503 13.543C61.6008 13.8327 62.5583 14.1224 63.9226 14.4121C66.6035 14.9915 68.5423 15.764 69.7391 16.7296C70.9599 17.6953 71.5702 19.011 71.5702 20.6767C71.5702 22.2942 70.8522 23.5857 69.416 24.5514C68.0037 25.517 66.0649 25.9998 63.5995 25.9998Z" fill="#0A43B5"/>
<path id="Vector_6" d="M48.6922 26C46.7533 26 45.3171 25.4326 44.3836 24.298C43.4501 23.1634 42.9834 21.7028 42.9834 19.9164V10.9359H39.2852C39.2852 9.80126 39.5006 8.95632 39.9315 8.40107C40.3623 7.84583 40.9368 7.56821 41.6549 7.56821H43.0552V4.56264C43.0552 3.57285 43.4142 2.87276 44.1323 2.46236C44.8504 2.02782 45.9395 1.81055 47.3996 1.81055V7.56821H52.1749C52.1749 8.77526 51.9475 9.64434 51.4927 10.1754C51.0379 10.6824 50.3078 10.9359 49.3025 10.9359H47.4714V19.7353C47.4714 20.5803 47.627 21.1838 47.9382 21.5459C48.2733 21.908 48.8358 22.0891 49.6257 22.0891C50.4634 22.0891 51.3012 21.8598 52.139 21.4011C52.3783 21.6183 52.5698 21.896 52.7134 22.2339C52.8571 22.5478 52.9289 22.8737 52.9289 23.2117C52.9289 23.9359 52.5579 24.5877 51.8158 25.1671C51.0738 25.7223 50.0326 26 48.6922 26Z" fill="#0A43B5"/>
<path id="Vector_7" d="M30.092 25.9998C28.608 25.9998 27.2556 25.7101 26.0348 25.1308C24.8141 24.5272 23.8447 23.7185 23.1266 22.7046C22.4085 21.6665 22.0494 20.5077 22.0494 19.2283V14.4121C22.0494 13.0602 22.4204 11.8411 23.1625 10.7547C23.9045 9.66837 24.8859 8.81136 26.1066 8.18369C27.3513 7.55602 28.6917 7.24219 30.1279 7.24219C31.5401 7.24219 32.8327 7.54395 34.0056 8.14748C35.2024 8.72686 36.1479 9.54766 36.842 10.6099C37.5362 11.6479 37.8832 12.8429 37.8832 14.1948V16.2227C37.8832 16.7538 37.6798 17.2004 37.2729 17.5625C36.8899 17.9246 36.3992 18.1057 35.8008 18.1057H26.3939V18.9024C26.3939 19.9404 26.705 20.7854 27.3274 21.4372C27.9497 22.089 28.8832 22.4149 30.1279 22.4149C31.3247 22.4149 32.2104 22.1493 32.7848 21.6182C33.3832 21.0871 33.6824 20.3991 33.6824 19.5542C34.1133 19.5059 34.4125 19.4817 34.58 19.4817C35.4657 19.4817 36.1598 19.6869 36.6625 20.0973C37.1652 20.4836 37.4165 21.0388 37.4165 21.7631C37.4165 22.4632 37.0934 23.1391 36.4471 23.7909C35.8008 24.4427 34.9152 24.9738 33.7902 25.3842C32.6652 25.7946 31.4324 25.9998 30.092 25.9998ZM33.8261 14.8829V14.1948C33.8261 13.1809 33.479 12.3601 32.7848 11.7324C32.0907 11.1048 31.1931 10.7909 30.092 10.7909C28.9909 10.7909 28.0933 11.1048 27.3992 11.7324C26.729 12.336 26.3939 13.1568 26.3939 14.1948V14.8829H33.8261Z" fill="#0A43B5"/>
<path id="Vector_8" d="M0 2.5346C0 1.90693 0.227394 1.38789 0.682182 0.977494C1.13697 0.542953 1.71144 0.325684 2.40559 0.325684H12.387C14.1104 0.325684 15.6304 0.67573 16.9468 1.37582C18.2873 2.05178 19.3165 3.02949 20.0346 4.30897C20.7766 5.56431 21.1476 7.02485 21.1476 8.69059C21.1476 10.3805 20.7886 11.8651 20.0705 13.1446C19.3524 14.4 18.3351 15.3777 17.0187 16.0778C15.7022 16.7537 14.1583 17.0917 12.387 17.0917H4.81118V22.4148C4.81118 23.5736 4.3923 24.4668 3.55453 25.0945C2.7407 25.698 1.55585 25.9998 0 25.9998V2.5346ZM12.387 12.8911C13.6556 12.8911 14.637 12.517 15.3311 11.7686C16.0253 11.0202 16.3724 9.98213 16.3724 8.65437C16.3724 7.35075 16.0133 6.33683 15.2952 5.61259C14.6011 4.88836 13.6317 4.52624 12.387 4.52624H4.81118V12.8911H12.387Z" fill="#0A43B5"/>
</g>
</svg>
