<svg width="24" height="24" viewBox="0 0 24 24" fill="none" xmlns="http://www.w3.org/2000/svg">
<g clip-path="url(#clip0_121_1114)">
<path fill-rule="evenodd" clip-rule="evenodd" d="M16.7222 3C17.0022 3 17.2707 3.11121 17.4686 3.30917C17.6666 3.50712 17.7778 3.7756 17.7778 4.05556V5.11111H19.8889C20.4488 5.11111 20.9858 5.33353 21.3817 5.72944C21.7776 6.12535 22 6.66232 22 7.22222V19.8889C22 20.4488 21.7776 20.9858 21.3817 21.3817C20.9858 21.7776 20.4488 22 19.8889 22H5.11111C4.55121 22 4.01424 21.7776 3.61833 21.3817C3.22242 20.9858 3 20.4488 3 19.8889V7.22222C3 6.66232 3.22242 6.12535 3.61833 5.72944C4.01424 5.33353 4.55121 5.11111 5.11111 5.11111H7.22222V4.05556C7.22222 3.7756 7.33343 3.50712 7.53139 3.30917C7.72934 3.11121 7.99783 3 8.27778 3C8.55773 3 8.82621 3.11121 9.02417 3.30917C9.22212 3.50712 9.33333 3.7756 9.33333 4.05556V5.11111H15.6667V4.05556C15.6667 3.7756 15.7779 3.50712 15.9758 3.30917C16.1738 3.11121 16.4423 3 16.7222 3ZM8.27778 7.22222H5.11111V9.33333H19.8889V7.22222H16.7222H8.27778ZM5.11111 11.4444V19.8889H19.8889V11.4444H5.11111ZM7.22222 13.5556C7.22222 13.2756 7.33343 13.0071 7.53139 12.8092C7.72934 12.6112 7.99783 12.5 8.27778 12.5H8.28833C8.56828 12.5 8.83677 12.6112 9.03472 12.8092C9.23268 13.0071 9.34389 13.2756 9.34389 13.5556C9.34389 13.8355 9.23268 14.104 9.03472 14.3019C8.83677 14.4999 8.56828 14.6111 8.28833 14.6111H8.27778C7.99783 14.6111 7.72934 14.4999 7.53139 14.3019C7.33343 14.104 7.22222 13.8355 7.22222 13.5556ZM8.27778 15.6667C7.99783 15.6667 7.72934 15.7779 7.53139 15.9758C7.33343 16.1738 7.22222 16.4423 7.22222 16.7222C7.22222 17.0022 7.33343 17.2707 7.53139 17.4686C7.72934 17.6666 7.99783 17.7778 8.27778 17.7778H8.28833C8.56828 17.7778 8.83677 17.6666 9.03472 17.4686C9.23268 17.2707 9.34389 17.0022 9.34389 16.7222C9.34389 16.4423 9.23268 16.1738 9.03472 15.9758C8.83677 15.7779 8.56828 15.6667 8.28833 15.6667H8.27778ZM11.4444 13.5556C11.4444 13.2756 11.5557 13.0071 11.7536 12.8092C11.9516 12.6112 12.22 12.5 12.5 12.5H12.5106C12.7905 12.5 13.059 12.6112 13.2569 12.8092C13.4549 13.0071 13.5661 13.2756 13.5661 13.5556C13.5661 13.8355 13.4549 14.104 13.2569 14.3019C13.059 14.4999 12.7905 14.6111 12.5106 14.6111H12.5C12.22 14.6111 11.9516 14.4999 11.7536 14.3019C11.5557 14.104 11.4444 13.8355 11.4444 13.5556ZM12.5 15.6667C12.22 15.6667 11.9516 15.7779 11.7536 15.9758C11.5557 16.1738 11.4444 16.4423 11.4444 16.7222C11.4444 17.0022 11.5557 17.2707 11.7536 17.4686C11.9516 17.6666 12.22 17.7778 12.5 17.7778H12.5106C12.7905 17.7778 13.059 17.6666 13.2569 17.4686C13.4549 17.2707 13.5661 17.0022 13.5661 16.7222C13.5661 16.4423 13.4549 16.1738 13.2569 15.9758C13.059 15.7779 12.7905 15.6667 12.5106 15.6667H12.5ZM15.6667 13.5556C15.6667 13.2756 15.7779 13.0071 15.9758 12.8092C16.1738 12.6112 16.4423 12.5 16.7222 12.5H16.7328C17.0127 12.5 17.2812 12.6112 17.4792 12.8092C17.6771 13.0071 17.7883 13.2756 17.7883 13.5556C17.7883 13.8355 17.6771 14.104 17.4792 14.3019C17.2812 14.4999 17.0127 14.6111 16.7328 14.6111H16.7222C16.4423 14.6111 16.1738 14.4999 15.9758 14.3019C15.7779 14.104 15.6667 13.8355 15.6667 13.5556ZM16.7222 15.6667C16.4423 15.6667 16.1738 15.7779 15.9758 15.9758C15.7779 16.1738 15.6667 16.4423 15.6667 16.7222C15.6667 17.0022 15.7779 17.2707 15.9758 17.4686C16.1738 17.6666 16.4423 17.7778 16.7222 17.7778H16.7328C17.0127 17.7778 17.2812 17.6666 17.4792 17.4686C17.6771 17.2707 17.7883 17.0022 17.7883 16.7222C17.7883 16.4423 17.6771 16.1738 17.4792 15.9758C17.2812 15.7779 17.0127 15.6667 16.7328 15.6667H16.7222Z" fill="#454545"/>
</g>
<defs>
<clipPath id="clip0_121_1114">
<rect width="24" height="24" fill="white"/>
</clipPath>
</defs>
</svg>
