<svg width="24" height="24" viewBox="0 0 24 24" fill="none" xmlns="http://www.w3.org/2000/svg">
<g id="icon/ empty heart">
<path id="Vector" d="M22 8.56897C22.0033 10.0308 21.4401 11.437 20.4287 12.4925C18.1097 14.897 15.8601 17.4041 13.4556 19.7202C12.9036 20.2427 12.0287 20.2237 11.5014 19.6774L4.57108 12.4935C2.47631 10.3217 2.47631 6.81619 4.57108 4.64542C5.06617 4.12576 5.66163 3.71205 6.32137 3.42938C6.98111 3.14671 7.69138 3.00095 8.40913 3.00095C9.12687 3.00095 9.83714 3.14671 10.4969 3.42938C11.1566 3.71205 11.7521 4.12576 12.2472 4.64542L12.4999 4.90572L12.7516 4.64542C13.2477 4.12699 13.8434 3.71404 14.5029 3.43131C15.1623 3.14857 15.8721 3.00187 16.5897 3C18.0337 3 19.4141 3.59281 20.4277 4.64542C21.4395 5.70073 22.003 7.107 22 8.56897Z" stroke="#454545" stroke-width="1.5" stroke-linejoin="round"/>
</g>
</svg>
