<svg width="24" height="24" viewBox="0 0 24 24" fill="none" xmlns="http://www.w3.org/2000/svg">
<g id="icon/ full heart">
<path id="Vector" fill-rule="evenodd" clip-rule="evenodd" d="M12.4999 4.49527C13.535 3.53634 14.8933 3.00247 16.3043 3C17.8297 3 19.2861 3.62745 20.3518 4.73211C21.4124 5.83766 22.0031 7.31124 22 8.84323C22.0031 10.3752 21.4124 11.8488 20.3518 12.9543C19.6484 13.6834 18.9458 14.4302 18.2397 15.1796C16.8045 16.7031 15.3543 18.2435 13.8476 19.6937L13.8449 19.6972C13.4708 20.0515 12.972 20.2438 12.4569 20.2324C11.9417 20.221 11.4519 20.0067 11.0939 19.6362L4.64705 12.9543C2.45098 10.677 2.45098 7.00949 4.64705 4.733C5.66188 3.66893 7.05495 3.04736 8.52469 3.00287C9.99443 2.95838 11.4226 3.49454 12.4999 4.49527Z" fill="#454545"/>
</g>
</svg>
